<svg width="248" height="62" viewBox="0 0 248 62" fill="none" xmlns="http://www.w3.org/2000/svg">
<path d="M85.8557 22.54C85.8557 14.5671 85.8557 10.5807 87.4319 7.54636C88.7602 4.98935 90.8451 2.90447 93.4021 1.57621C96.4364 0 100.423 0 108.396 0H231.526C237.221 0 240.068 0 242.236 1.12587C244.062 2.07462 245.551 3.56382 246.5 5.39026C247.626 7.55764 247.626 10.4051 247.626 16.1V61.4545H85.8557V22.54Z" fill="#B8AE99"/>
<path d="M62.1682 9.90042C69.8841 3.50189 79.5929 0 89.6167 0H214.187V61.4545H69.3115C45.8991 61.4545 35.3312 32.1555 53.353 17.2106L62.1682 9.90042Z" fill="#B8AE99"/>
</svg>
