<svg width="204" height="62" viewBox="0 0 204 62" fill="none" xmlns="http://www.w3.org/2000/svg">
<path d="M41.8557 22.54C41.8557 14.5671 41.8557 10.5807 43.4319 7.54636C44.7602 4.98935 46.8451 2.90447 49.4021 1.57621C52.4364 0 56.423 0 64.396 0H187.526C193.221 0 196.068 0 198.236 1.12587C200.062 2.07462 201.551 3.56382 202.5 5.39026C203.626 7.55764 203.626 10.4051 203.626 16.1V61.4545H41.8557V22.54Z" fill="#B8AE99"/>
<path d="M18.1682 9.90042C25.8841 3.50189 35.5929 0 45.6167 0H170.187V61.4545H25.3115C1.89907 61.4545 -8.66883 32.1555 9.35297 17.2106L18.1682 9.90042Z" fill="#B8AE99"/>
</svg>
