<svg width="1139" height="62" viewBox="0 0 1139 62" fill="none" xmlns="http://www.w3.org/2000/svg">
<path d="M0 23.2913C0 15.0526 0 10.9334 1.5331 7.7979C2.82504 5.15566 4.8529 3.00129 7.33998 1.62875C10.2913 0 14.1687 0 21.9236 0H1039.67C1047.42 0 1051.3 0 1054.25 1.62875C1056.74 3.00129 1058.76 5.15566 1060.05 7.7979C1061.59 10.9334 1061.59 15.0528 1061.59 23.2913V61.4517H0V23.2913Z" fill="#B8AE99"/>
<path d="M1123.56 10.5913C1115.99 3.75438 1106.39 0 1096.46 0H983.331V61.4517H1113.73C1136.34 61.4517 1146.71 31.5148 1129.48 15.9428L1123.56 10.5913Z" fill="#B8AE99"/>
</svg>
