<svg width="1213" height="60" viewBox="0 0 1213 60" fill="none" xmlns="http://www.w3.org/2000/svg">
<path d="M0 22.8053C0 14.8324 0 10.846 1.57621 7.81168C2.90447 5.25467 4.98935 3.16979 7.54636 1.84153C10.5807 0.26532 14.5671 0.26532 22.54 0.26532H1068.9C1076.87 0.26532 1080.86 0.26532 1083.89 1.84153C1086.45 3.16979 1088.53 5.25467 1089.86 7.81168C1091.44 10.846 1091.44 14.8325 1091.44 22.8053V59.7347H0V22.8053Z" fill="#B8AE99"/>
<path d="M1155.15 10.515C1147.37 3.89859 1137.5 0.26532 1127.29 0.26532H1010.98V59.7347H1145.04C1168.29 59.7347 1178.95 30.7635 1161.24 15.6938L1155.15 10.515Z" fill="#B8AE99"/>
</svg>
